<?xml version="1.0" encoding="utf-8"?>
<!-- Generator: Adobe Illustrator 25.2.0, SVG Export Plug-In . SVG Version: 6.00 Build 0)  -->
<svg version="1.1" id="レイヤー_1" xmlns="http://www.w3.org/2000/svg" xmlns:xlink="http://www.w3.org/1999/xlink" x="0px"
	 y="0px" width="141.732px" height="31.181px" viewBox="0 0 141.732 31.181" style="enable-background:new 0 0 141.732 31.181;"
	 xml:space="preserve">
<style type="text/css">
	.st0{fill:#32A2D3;}
</style>
<g>
	<g>
		<g>
			<path class="st0" d="M64.059,1.056h2.514l5.198,14.994h-2.533l-1.267-3.969h-5.386l-1.267,3.969H58.88L64.059,1.056z
				 M63.227,10.087h4.12l-2.022-6.447h-0.057L63.227,10.087z"/>
		</g>
		<path class="st0" d="M9.739,2.893L7.848,4.014C7.494,3.4,7.158,3,6.838,2.813C6.504,2.6,6.074,2.493,5.547,2.493
			c-0.646,0-1.184,0.184-1.611,0.55c-0.426,0.36-0.64,0.814-0.64,1.361c0,0.754,0.561,1.361,1.681,1.821l1.541,0.63
			C7.772,7.362,8.689,7.98,9.269,8.711c0.58,0.73,0.87,1.625,0.87,2.686c0,1.421-0.474,2.595-1.421,3.521
			c-0.954,0.935-2.137,1.401-3.551,1.401c-1.341,0-2.448-0.397-3.322-1.191c-0.86-0.794-1.397-1.91-1.61-3.351l2.361-0.52
			c0.106,0.907,0.293,1.534,0.56,1.881c0.48,0.666,1.181,1,2.101,1c0.727,0,1.331-0.243,1.811-0.73
			c0.48-0.487,0.72-1.104,0.72-1.851c0-0.3-0.041-0.575-0.125-0.825s-0.214-0.481-0.39-0.691c-0.177-0.21-0.405-0.406-0.685-0.59
			C6.307,9.268,5.974,9.092,5.587,8.926l-1.491-0.62C1.982,7.412,0.925,6.104,0.925,4.384c0-1.16,0.444-2.131,1.331-2.911
			c0.886-0.787,1.991-1.181,3.311-1.181C7.348,0.292,8.739,1.159,9.739,2.893"/>
		<polygon class="st0" points="45.883,0.592 45.883,13.848 50.425,13.848 50.425,16.039 43.552,16.039 43.552,0.592 		"/>
		<path class="st0" d="M90.522,1.422v2.761c-1.348-1.127-2.741-1.691-4.183-1.691c-1.588,0-2.923,0.571-4.011,1.711
			c-1.093,1.134-1.641,2.521-1.641,4.162c0,1.621,0.548,2.987,1.641,4.101c1.093,1.115,2.434,1.671,4.022,1.671
			c0.82,0,1.518-0.133,2.091-0.4c0.32-0.133,0.651-0.314,0.994-0.54c0.345-0.227,0.706-0.5,1.087-0.82v2.811
			c-1.334,0.754-2.734,1.13-4.202,1.13c-2.208,0-4.092-0.77-5.652-2.311c-1.554-1.554-2.332-3.427-2.332-5.622
			c0-1.967,0.651-3.722,1.951-5.262c1.601-1.888,3.672-2.832,6.213-2.832C87.887,0.291,89.228,0.668,90.522,1.422"/>
		<polygon class="st0" points="101.941,6.634 108.604,6.634 108.604,0.592 110.935,0.592 110.935,16.039 108.604,16.039 
			108.604,8.825 101.941,8.825 101.941,16.039 99.61,16.039 99.61,0.592 101.941,0.592 		"/>
		<rect x="120.784" y="0.592" class="st0" width="2.331" height="15.447"/>
		<polygon class="st0" points="141.497,2.783 135.304,2.783 135.304,6.495 141.316,6.495 141.316,8.686 135.304,8.686 
			135.304,13.848 141.497,13.848 141.497,16.039 132.973,16.039 132.973,0.592 141.497,0.592 		"/>
		<path class="st0" d="M34.055,9.125H18.34V8.149c0-4.332,3.525-7.858,7.858-7.858c4.332,0,7.857,3.526,7.857,7.858V9.125z
			 M20.373,7.173h11.648c-0.466-2.793-2.9-4.929-5.823-4.929C23.274,2.244,20.839,4.38,20.373,7.173"/>
		<rect x="22.597" y="14.062" class="st0" width="7.507" height="1.977"/>
		<rect x="19.304" y="10.605" class="st0" width="14.093" height="1.977"/>
	</g>
	<g>
		<path class="st0" d="M51.769,26.671h-1.744l-0.394-2.344h1.744L51.769,26.671z M52.331,30.89l2.025-6.562H56.1l-2.025,6.562
			H52.331z"/>
		<path class="st0" d="M60.432,25.241v-0.68h6.469v0.68H60.432z M60.432,27.522v-0.68H65.1h1.8l-0.619,4.047h-1.8l0.521-3.367
			H60.432z"/>
		<path class="st0" d="M73.286,30.89l0.281-2.938h-2.334v-0.688h2.404l0.169-1.797l-2.573,0.297v-0.688l6.468-0.75v0.688
			l-2.074,0.242l-0.189,2.008h2.264v0.688h-2.334l-0.281,2.938H73.286z"/>
		<path class="st0" d="M82.032,30.89v-0.688h2.335V25.39h-2.194v-0.688h2.194h1.8h2.208v0.688h-2.208v4.812h2.349v0.688h-2.349h-1.8
			H82.032z"/>
	</g>
</g>
</svg>
